<?xml version="1.0" ?><svg viewBox="0 0 64 64" xmlns="http://www.w3.org/2000/svg"><defs><style>.cls-1{fill:none;stroke:#405366;stroke-miterlimit:10;stroke-width:2px;}</style></defs><title/><g data-name="Batch Processing" id="Batch_Processing"><polyline class="cls-1" points="63 38 63 1 23 1 23 7"/><line class="cls-1" x1="63" x2="63" y1="42" y2="48"/><polyline class="cls-1" points="57 44 57 7 17 7 17 13"/><line class="cls-1" x1="57" x2="57" y1="48" y2="54"/><polyline class="cls-1" points="51 50 51 13 11 13 11 19"/><line class="cls-1" x1="51" x2="51" y1="54" y2="60"/><path class="cls-1" d="M7,51V19H45V58a5,5,0,0,1-5,5h0a5,5,0,0,1-5-5V51H1v7a5,5,0,0,0,5,5H40"/><polyline class="cls-1" points="37.52 30.12 35.81 34 31.93 32.29"/><polyline class="cls-1" points="14.48 41.88 16.19 38 20.07 39.71"/><path class="cls-1" d="M35.8,34a10,10,0,0,0-19.6,0"/><path class="cls-1" d="M16.2,38a10,10,0,0,0,19.6,0"/><polyline class="cls-1" points="11 28 11 23 16 23"/><line class="cls-1" x1="4" x2="10" y1="55" y2="55"/></g></svg>